<svg width="220" height="60" viewBox="0 0 220 60" fill="none" xmlns="http://www.w3.org/2000/svg">
<path d="M16 0.5H204C212.56 0.5 219.5 7.43959 219.5 16V44C219.5 52.5604 212.56 59.5 204 59.5H16C7.43958 59.5 0.5 52.5604 0.5 44V16C0.5 7.43959 7.43959 0.5 16 0.5Z" stroke="#323942"/>
<path d="M204 11H16C7.71573 11 1 17.7157 1 26V44C1 52.2843 7.71573 59 16 59H204C212.284 59 219 52.2843 219 44V26C219 17.7157 212.284 11 204 11Z" fill="#59BDB0"/>
<path d="M204 1H16C7.71573 1 1 7.71573 1 16V40C1 48.2843 7.71573 55 16 55H204C212.284 55 219 48.2843 219 40V16C219 7.71573 212.284 1 204 1Z" fill="#78DCCF"/>
</svg>
