<svg width="281" height="281" viewBox="0 0 281 281" fill="none" xmlns="http://www.w3.org/2000/svg">
<path d="M281 140.5C281 107.547 269.417 75.643 248.277 50.365C227.137 25.0871 197.785 8.04394 165.351 2.21531L162.133 20.1232C190.366 25.197 215.918 40.0331 234.32 62.0375C252.723 84.042 262.805 111.815 262.805 140.5H281Z" fill="#7FD1AE"/>
<path d="M0 140.5C-2.88082e-06 173.453 11.5826 205.357 32.7227 230.635C53.8629 255.913 83.2154 272.956 115.649 278.785L118.867 260.877C90.6338 255.803 65.0824 240.967 46.6799 218.962C28.2774 196.958 18.1947 169.185 18.1947 140.5H0Z" fill="#7FD1AE"/>
<path d="M222 141C222 187.392 184.168 225 137.5 225C90.8319 225 53 187.392 53 141C53 94.6081 90.8319 57 137.5 57C184.168 57 222 94.6081 222 141ZM60.8792 141C60.8792 183.066 95.1835 217.167 137.5 217.167C179.817 217.167 214.121 183.066 214.121 141C214.121 98.9339 179.817 64.8325 137.5 64.8325C95.1835 64.8325 60.8792 98.9339 60.8792 141Z" fill="#F18A69"/>
<path d="M41.7742 194.941H91.7615V230.646H41.7742L58.7475 213.304L41.7742 194.941Z" fill="#323942"/>
<path d="M238.867 194.941H188.88V230.646H238.867L221.894 213.304L238.867 194.941Z" fill="#323942"/>
<rect x="79.5" y="169.5" width="123" height="43" fill="#323942" stroke="#F18A69" stroke-width="3"/>
<path d="M143.382 196.92V208H136.622V196.92L126.062 178.86H132.022C132.608 178.86 133.068 179 133.402 179.28C133.748 179.547 134.035 179.893 134.262 180.32L138.382 188.8C138.728 189.467 139.042 190.093 139.322 190.68C139.602 191.253 139.848 191.82 140.062 192.38C140.262 191.807 140.488 191.233 140.742 190.66C141.008 190.073 141.315 189.453 141.662 188.8L145.742 180.32C145.835 180.147 145.948 179.973 146.082 179.8C146.215 179.627 146.368 179.473 146.542 179.34C146.728 179.193 146.935 179.08 147.162 179C147.402 178.907 147.662 178.86 147.942 178.86H153.942L143.382 196.92Z" fill="#F18A69"/>
<path d="M196.131 193.42C196.131 195.527 195.764 197.487 195.031 199.3C194.311 201.113 193.291 202.693 191.971 204.04C190.651 205.373 189.058 206.42 187.191 207.18C185.338 207.94 183.278 208.32 181.011 208.32C178.744 208.32 176.678 207.94 174.811 207.18C172.944 206.42 171.344 205.373 170.011 204.04C168.691 202.693 167.664 201.113 166.931 199.3C166.211 197.487 165.851 195.527 165.851 193.42C165.851 191.313 166.211 189.353 166.931 187.54C167.664 185.727 168.691 184.153 170.011 182.82C171.344 181.487 172.944 180.44 174.811 179.68C176.678 178.92 178.744 178.54 181.011 178.54C183.278 178.54 185.338 178.927 187.191 179.7C189.058 180.46 190.651 181.507 191.971 182.84C193.291 184.173 194.311 185.747 195.031 187.56C195.764 189.373 196.131 191.327 196.131 193.42ZM189.211 193.42C189.211 191.98 189.024 190.687 188.651 189.54C188.278 188.38 187.738 187.4 187.031 186.6C186.338 185.8 185.484 185.187 184.471 184.76C183.458 184.333 182.304 184.12 181.011 184.12C179.704 184.12 178.538 184.333 177.511 184.76C176.498 185.187 175.638 185.8 174.931 186.6C174.238 187.4 173.704 188.38 173.331 189.54C172.958 190.687 172.771 191.98 172.771 193.42C172.771 194.873 172.958 196.18 173.331 197.34C173.704 198.487 174.238 199.46 174.931 200.26C175.638 201.06 176.498 201.673 177.511 202.1C178.538 202.513 179.704 202.72 181.011 202.72C182.304 202.72 183.458 202.513 184.471 202.1C185.484 201.673 186.338 201.06 187.031 200.26C187.738 199.46 188.278 198.487 188.651 197.34C189.024 196.18 189.211 194.873 189.211 193.42Z" fill="#F18A69"/>
<path d="M97.6552 184.06V190.86H106.815V195.86H97.6552V202.8H109.615V208H90.8552V178.86H109.615V184.06H97.6552Z" fill="#F18A69"/>
<path fill-rule="evenodd" clip-rule="evenodd" d="M200.294 118.294L232.276 93.2814C233.362 92.433 234.254 91.3676 234.893 90.1552C235.532 88.9427 235.904 87.6107 235.984 86.2466C236.064 84.8825 235.85 83.5171 235.357 82.2402C234.864 80.9632 234.102 79.8036 233.123 78.8374C232.143 77.8712 230.967 77.1204 229.672 76.6341C228.377 76.1479 226.992 75.9373 225.609 76.0161C224.226 76.095 222.875 76.4615 221.645 77.0917C220.416 77.7218 219.336 78.6013 218.475 79.6724L193.11 111.21C187.616 108.843 179.238 108.524 172.18 115.479C167.913 119.691 165.257 124.839 164.349 129.739C163.466 134.506 164.143 139.796 167.724 143.327C171.302 146.859 176.67 147.527 181.5 146.656C186.468 145.761 191.694 143.141 195.96 138.929C203.023 131.969 202.695 123.712 200.294 118.294Z" fill="#323942"/>
<path fill-rule="evenodd" clip-rule="evenodd" d="M114.476 129.426C114.066 129.745 113.597 129.98 113.095 130.118C112.594 130.256 112.071 130.294 111.555 130.229C111.039 130.164 110.541 129.999 110.089 129.741C109.638 129.484 109.241 129.14 108.922 128.729L99.057 116.037C97.7672 114.377 95.9884 113.165 93.9723 112.573C91.9562 111.98 89.805 112.037 87.8231 112.736L89.8286 115.266L106.45 131.9C107.171 132.646 107.569 133.646 107.56 134.684C107.551 135.722 107.135 136.715 106.402 137.449C105.668 138.183 104.676 138.599 103.639 138.608C102.602 138.617 101.603 138.218 100.857 137.497L84.2354 120.863L81.7038 118.856C81.0062 120.84 80.9498 122.993 81.5425 125.011C82.1353 127.028 83.3472 128.808 85.0067 130.099L97.6923 139.971C98.4942 140.625 99.0086 141.566 99.1253 142.595C99.242 143.623 98.9517 144.656 98.3167 145.473C97.6816 146.289 96.7523 146.825 95.7277 146.964C94.7031 147.103 93.6646 146.836 92.8348 146.218L80.1492 136.345C76.8206 133.754 74.511 130.071 73.6263 125.944C72.7416 121.818 73.3382 117.511 75.3115 113.781L48.5044 92.5033C47.4823 91.6931 46.643 90.6757 46.0417 89.5178C45.4404 88.36 45.0907 87.088 45.0154 85.7853C44.9402 84.4826 45.1411 83.1787 45.6051 81.9592C46.0691 80.7398 46.7856 79.6323 47.7076 78.7097C48.6296 77.787 49.7361 77.0699 50.9547 76.6056C52.1732 76.1412 53.4761 75.9401 54.7778 76.0154C56.0795 76.0907 57.3505 76.4408 58.5075 77.0425C59.6644 77.6443 60.681 78.4842 61.4906 79.5071L82.752 106.335C86.4792 104.36 90.7826 103.763 94.906 104.648C99.0295 105.534 102.709 107.845 105.299 111.176L115.168 123.872C115.812 124.701 116.1 125.751 115.969 126.793C115.839 127.834 115.304 128.781 114.476 129.426Z" fill="#323942"/>
</svg>
